<svg width="100" height="100" viewBox="0 0 100 100" fill="none" xmlns="http://www.w3.org/2000/svg" class="d-block">
                                                 <circle cx="50" cy="50" r="49.5" fill="#fff" stroke="#c7cdd6"></circle>
                                                 <path d="M57.2608 62.7612C55.2449 64.2953 52.729 65.2061 50.0003 65.2061C47.2716 65.2061 44.7557 64.2953 42.7399 62.7612C42.3223 62.4434 41.9261 62.0989 41.554 61.7301C41.408 61.5854 41.2656 61.437 41.1272 61.285C40.408 60.4956 41.4576 59.6672 42.3877 60.1366C42.4118 60.1488 42.4358 60.1618 42.4597 60.1757C42.9193 60.4435 43.3944 60.6876 43.8833 60.9062C45.7514 61.7416 47.8216 62.2061 50.0003 62.2061C52.179 62.2061 54.2492 61.7416 56.1173 60.9062C56.6063 60.6876 57.0814 60.4435 57.5409 60.1757C57.5648 60.1618 57.5889 60.1488 57.613 60.1366C58.543 59.6672 59.5926 60.4956 58.8735 61.285C58.735 61.437 58.5927 61.5854 58.4466 61.7301C58.0745 62.0989 57.6784 62.4434 57.2608 62.7612Z" fill="#619fff"></path>
                                                 <path d="M39 50C39 48.3431 40.1123 47 41.4845 47H41.5155C42.8877 47 44 48.3431 44 50C44 51.6569 42.8877 53 41.5155 53H41.4845C40.1123 53 39 51.6569 39 50Z" fill="#619fff"></path>
                                                 <path d="M58.4845 47C57.1123 47 56 48.3431 56 50C56 51.6569 57.1123 53 58.4845 53H58.5155C59.8877 53 61 51.6569 61 50C61 48.3431 59.8877 47 58.5155 47H58.4845Z" fill="#619fff"></path>
                                                 <path fill-rule="evenodd" clip-rule="evenodd" d="M50 75C63.8071 75 75 63.8071 75 50C75 36.1929 63.8071 25 50 25C36.1929 25 25 36.1929 25 50C25 63.8071 36.1929 75 50 75ZM73 50C73 62.7026 62.7026 73 50 73C37.2975 73 27 62.7026 27 50C27 37.2975 37.2975 27 50 27C62.7026 27 73 37.2975 73 50Z" fill="#619fff"></path>
                                             </svg>