<svg width="100" height="100" viewBox="0 0 100 100" fill="none" xmlns="http://www.w3.org/2000/svg" class="d-block">
                                                 <circle cx="50" cy="50" r="50" fill="#c4c4c4">
                                                 </circle>
                                                 <circle cx="50" cy="50" r="49.5" fill="#fff" stroke="#c7cdd6"></circle>
                                                 <path fill-rule="evenodd" clip-rule="evenodd" d="M23 92.0905V72.9412C23 70.7936 24.7185 69 26.8729 69H29V55.873C29 53.7555 30.7054 52 32.8279 52H34V41.016C34 38.8099 35.7927 37 38 37H39.2055L40.6234 30.8905L40.6254 30.8826C41.054 29.1633 42.6073 28 44.3615 28H48.5V17C48.5 16.1716 49.1716 15.5 50 15.5C50.8284 15.5 51.5 16.1716 51.5 17V28H55.7669C57.5211 28 59.0744 29.1633 59.5031 30.8826L59.5072 30.8991L60.8091 37H62C64.2073 37 66 38.8099 66 41.016V52H68.1721C70.2946 52 72 53.7555 72 55.873V69H74.1271C76.2815 69 78 70.7936 78 72.9412V91.4307C77.3443 91.8747 76.6774 92.3036 76 92.7168V72.9412C76 71.8535 75.1329 71 74.1271 71H57.8729C56.8671 71 56 71.8535 56 72.9412V99.6437C55.3372 99.723 54.6705 99.7893 54 99.8423V55.873C54 53.7555 55.7054 52 57.8279 52H64V41.016C64 39.9045 63.0927 39 62 39H38C36.9073 39 36 39.9045 36 41.016V52H43.1721C45.2946 52 47 53.7555 47 55.873V99.9115C46.3297 99.8718 45.6629 99.8189 45 99.7531V72.9412C45 71.8535 44.1329 71 43.1271 71H26.8729C25.8671 71 25 71.8535 25 72.9412V93.3109C24.3231 92.9193 23.6563 92.5124 23 92.0905ZM42.5677 31.3594L41.2587 37H58.7641L57.5588 31.3517C57.3549 30.5629 56.6307 30 55.7669 30H44.3615C43.4949 30 42.7688 30.5665 42.5677 31.3594ZM43.1271 69H31V55.873C31 54.8302 31.8397 54 32.8279 54H43.1721C44.1603 54 45 54.8302 45 55.873V69.4928C44.4464 69.1794 43.8086 69 43.1271 69ZM70 69V55.873C70 54.8302 69.1603 54 68.1721 54H57.8279C56.8397 54 56 54.8302 56 55.873V69.4928C56.5536 69.1794 57.1914 69 57.8729 69H70ZM44 33V35H46V33H44ZM49 33V35H51V33H49ZM54 35V33H56V35H54ZM34 61V58H36V61H34ZM34 66V63H36V66H34ZM40 61V58H42V61H40ZM40 63V66H42V63H40ZM59 58V61H61V58H59ZM59 63V66H61V63H59ZM65 58V61H67V58H65ZM65 66V63H67V66H65ZM31 76V90.5268H29V76H31ZM36 95.3691V76H34V95.3691H36ZM67 95.3691V76H65V95.3691H67ZM72 90.5268V76H70V90.5268H72ZM40 43V49.0193H42V43H40ZM46 49.0193V43H48V49.0193H46ZM52 43V49.0193H54V43H52ZM58 49.0193V43H60V49.0193H58Z" fill="#619fff"></path>
                                             </svg>